<?xml version="1.0" encoding="utf-8"?>
<?xml-stylesheet type="text/xsl" href="rss1.xsl"?>
<rss version="2.0" xmlns:atom="http://www.w3.org/2005/Atom" xmlns:content="http://purl.org/rss/1.0/modules/content/" xmlns:dc="http://purl.org/dc/elements/1.1/" xmlns:media="http://search.yahoo.com/mrss/">
<channel>
 <title>Getty</title>
 <link>http://www.gettyimg.com/</link>
 <atom:link href="http://www.gettyimg.com/" rel="self" type="application/rss+xml" />

 
                <item>
                <title><![CDATA[【MASTER &amp; MASTER RIP】MASTER - Kali Uchis Ft. Peso Pluma - Igual Que Un Angel (Master 1080p)]]></title>
                <link><![CDATA[https://sharemania.us/threads/kali-uchis-ft-peso-pluma-igual-que-un-angel-master-1080p.236327/]]></link>
                <description><![CDATA[<article>
<blockquote class="messageText SelectQuoteContainer ugc baseHtml">
<img src="https://images2.imgbox.com/8b/6b/ueMG5x1n_o.jpg" class="bbCodeImage LbImage" alt="[​IMG]" data-url="https://images2.imgbox.com/8b/6b/ueMG5x1n_o.jpg" style=""><br>
<br>
<span data-s9e-mediaembed="youtube" style="display:inline-block;width:100%;max-width:640px"><span style="display:block;overflow:hidden;position:relative;padding-bottom:56.25%"><iframe allowfullscreen="" loading="lazy" scrolling="no" style="background:url(https://i.ytimg.com/vi/YR1t_MUN8I4/hqdefault.jpg) 50% 50% / cover;border:0;height:100%;left:0;position:absolute;width:100%" src="https://www.youtube.com/embed/YR1t_MUN8I4"></iframe></span></span><br>
<br>
<div class="ToggleTriggerAnchor bbCodeSpoilerContainer">
<button type="button" class="button bbCodeSpoilerButton ToggleTrigger Tooltip JsOnly" data-target="> .SpoilerTarget"><span>Spoiler: <span class="SpoilerTitle">Media Info</span></span></button>
<div class="SpoilerTarget bbCodeSpoilerText">Format : MPEG-4<br>
Format profile : Base Media / Version 2<br>
Codec ID : mp42 (mp42/mp41)<br>
File size : 511 MiB<br>
Duration : 4 min 22 s<br>
Overall bit rate mode : Variable<br>
Overall bit rate : 16.3 Mb/s<br>
Frame rate : 24.000 FPS<br>
Encoded date : 2024-01-17 17:43:54 UTC<br>
Tagged date : 2024-01-17 17:44:32 UTC<br>
TIM : 00:00:00:00<br>
TSC : 24<br>
TSZ : 1<br>
<br>
Video<br>
ID : 1<br>
Format : AVC<br>
Format/Info : Advanced Video Codec<br>
Format profile : Main@L4.2<br>
Format settings : CABAC / 2 Ref Frames<br>
Format settings, CABAC : Yes<br>
Format settings, Reference : 2 frames<br>
Codec ID : avc1<br>
Codec ID/Info : Advanced Video Coding<br>
Duration : 4 min 22 s<br>
Bit rate : 16.0 Mb/s<br>
Width : 2 048 pixels<br>
Height : 1 080 pixels<br>
Display aspect ratio : 1.896<br>
Frame rate mode : Constant<br>
Frame rate : 24.000 FPS<br>
Color space : YUV<br>
Chroma subsampling : 4:2:0<br>
Bit depth : 8 bits<br>
Scan type : Progressive<br>
Bits/(Pixel*Frame) : 0.301<br>
Stream size : 501 MiB (98%)<br>
Language : English<br>
Encoded date : 2024-01-17 17:43:54 UTC<br>
Tagged date : 2024-01-17 17:43:54 UTC<br>
Color range : Limited<br>
Color primaries : BT.709<br>
Transfer characteristics : BT.709<br>
Matrix coefficients : BT.709<br>
Codec configuration box : avcC<br>
<br>
Audio<br>
ID : 2<br>
Format : AAC LC<br>
Format/Info : Advanced Audio Codec Low Complexity<br>
Codec ID : mp4a-40-2<br>
Duration : 4 min 22 s<br>
Source duration : 4 min 22 s<br>
Bit rate mode : Variable<br>
Bit rate : 317 kb/s<br>
Maximum bit rate : 532 kb/s<br>
Channel(s) : 2 channels<br>
Channel layout : L R<br>
Sampling rate : 48.0 kHz<br>
Frame rate : 46.875 FPS (1024 SPF)<br>
Compression mode : Lossy<br>
Stream size : 9.95 MiB (2%)<br>
Source stream size : 9.95 MiB (2%)<br>
Language : English<br>
Encoded date : 2024-01-17 17:43:54 UTC<br>
Tagged date : 2024-01-17 17:43:54 UTC</div>
</div><br>
<div class="bbCodeBlock bbCodeVfcHH HiddenContent">
<div class="attribution type">Hidden Content:</div>
<blockquote>You must reply before you can see the hidden data contained here.</blockquote>
</div>
<div class="messageTextEndMarker">&nbsp;</div>
</blockquote>
</article>]]></description>
                <author><![CDATA[Eric Lyn]]></author>
                </item>

                
                <item>
                <title><![CDATA[【Albums (lossless)】FLAC - TWS - Sparkling Blue (Genie Music FLAC 24bits/96kHz) [2024]]]></title>
                <link><![CDATA[https://sharemania.us/threads/tws-sparkling-blue-genie-music-flac-24bits-96khz-2024.236326/]]></link>
                <description><![CDATA[<article>
<blockquote class="messageText SelectQuoteContainer ugc baseHtml">
<img src="https://images2.imgbox.com/6d/bc/1bHPSCLG_o.jpg" class="bbCodeImage LbImage" alt="[​IMG]" data-url="https://images2.imgbox.com/6d/bc/1bHPSCLG_o.jpg" style=""><br>
<br>
<i><b>Sparkling Blue</b></i> is the debut mini album by <a href="https://kpop.fandom.com/wiki/TWS" target="_blank" class="externalLink" rel="nofollow">TWS</a>. It was released on January 22, 2024 with "Plot Twist" serving as the album's title track.<br>
"<a href="https://kpop.fandom.com/wiki/Oh_Mymy_:_7s" target="_blank" class="externalLink" rel="nofollow">Oh Mymy : 7s</a>" was pre-released on January 2, 2024.<br>
The physical album comes in two versions: Sparkling and Lucky.<br>
<br>
<span data-s9e-mediaembed="youtube" style="display:inline-block;width:100%;max-width:640px"><span style="display:block;overflow:hidden;position:relative;padding-bottom:56.25%"><iframe allowfullscreen="" loading="lazy" scrolling="no" style="background:url(https://i.ytimg.com/vi/hVAc1Vf2ITU/hqdefault.jpg) 50% 50% / cover;border:0;height:100%;left:0;position:absolute;width:100%" src="https://www.youtube.com/embed/hVAc1Vf2ITU"></iframe></span></span><br>
<br>
<span style="font-size: 18px"><b>Track list</b></span><br>
<ol>
<li>"Plot Twist (첫 만남은 계획대로 되지 않아)" - 2:32</li>
<li>"Unplugged Boy" - 3:08</li>
<li>"First Hooky" - 3:29</li>
<li>"BFF" - 2:47</li>
<li>"<a href="https://kpop.fandom.com/wiki/Oh_Mymy_:_7s" target="_blank" class="externalLink" rel="nofollow">Oh Mymy : 7s</a>" - 3:10</li>
</ol><br>
<div class="bbCodeBlock bbCodeVfcHH HiddenContent">
<div class="attribution type">Hidden Content:</div>
<blockquote>You must reply before you can see the hidden data contained here.</blockquote>
</div>
<div class="messageTextEndMarker">&nbsp;</div>
</blockquote>
</article>]]></description>
                <author><![CDATA[Eric Lyn]]></author>
                </item>

                </channel></rss>